<svg xmlns="http://www.w3.org/2000/svg" xmlns:xlink="http://www.w3.org/1999/xlink" contentStyleType="text/css" data-diagram-type="CLASS" height="502px" preserveAspectRatio="none" style="width:934px;height:502px;background:#FFFFFF;" version="1.1" viewBox="0 0 934 502" width="934px" zoomAndPan="magnify"><?plantuml 1.2026.6?><defs/><g><!--class TestCar--><g class="entity" data-qualified-name="TestCar" data-source-line="5" id="ent0001"><rect fill="#F1F1F1" height="48" rx="2.5" ry="2.5" style="stroke:#181818;stroke-width:0.5;" width="81.7861" x="398.94" y="331"/><ellipse cx="413.94" cy="347" fill="#ADD1B2" rx="11" ry="11" style="stroke:#181818;stroke-width:1;"/><path d="M416.7056,342.875 Q416.8619,342.6563 417.0494,342.5469 Q417.2369,342.4375 417.4556,342.4375 Q417.8306,342.4375 418.065,342.7031 Q418.2994,342.9531 418.2994,343.5625 L418.2994,345.0156 Q418.2994,345.625 418.065,345.8906 Q417.8306,346.1563 417.4556,346.1563 Q417.1119,346.1563 416.9088,345.9531 Q416.7056,345.7656 416.5963,345.25 Q416.5494,344.8906 416.3619,344.7031 Q416.0338,344.3281 415.4244,344.1094 Q414.815,343.8906 414.19,343.8906 Q413.4244,343.8906 412.7838,344.2188 Q412.1588,344.5469 411.6588,345.2969 Q411.1744,346.0469 411.1744,347.0781 L411.1744,348.1719 Q411.1744,349.4063 412.065,350.2344 Q412.9556,351.0469 414.5494,351.0469 Q415.4869,351.0469 416.1431,350.7969 Q416.5338,350.6406 416.9556,350.2031 Q417.2213,349.9375 417.3619,349.8594 Q417.5181,349.7813 417.7213,349.7813 Q418.0494,349.7813 418.2994,350.0469 Q418.565,350.2969 418.565,350.6406 Q418.565,350.9844 418.2213,351.3906 Q417.7213,351.9688 416.9244,352.2969 Q415.8463,352.75 414.5494,352.75 Q413.0338,352.75 411.8306,352.125 Q410.8463,351.625 410.1588,350.5625 Q409.4713,349.4844 409.4713,348.2031 L409.4713,347.0469 Q409.4713,345.7188 410.0806,344.5781 Q410.7056,343.4219 411.7994,342.8125 Q412.8931,342.1875 414.1275,342.1875 Q414.8619,342.1875 415.5025,342.3594 Q416.1588,342.5156 416.7056,342.875 Z " fill="#000000"/><text fill="#000000" font-family="sans-serif" font-size="14" lengthAdjust="spacing" textLength="49.7861" x="427.94" y="352.7285">TestCar</text><line style="stroke:#181818;stroke-width:0.5;" x1="399.94" x2="479.7261" y1="363" y2="363"/><line style="stroke:#181818;stroke-width:0.5;" x1="399.94" x2="479.7261" y1="371" y2="371"/></g><!--class TestDrive--><g class="entity" data-qualified-name="TestDrive" data-source-line="6" id="ent0002"><rect fill="#F1F1F1" height="48" rx="2.5" ry="2.5" style="stroke:#181818;stroke-width:0.5;" width="91.8965" x="393.89" y="223"/><ellipse cx="408.89" cy="239" fill="#ADD1B2" rx="11" ry="11" style="stroke:#181818;stroke-width:1;"/><path d="M411.6556,234.875 Q411.8119,234.6563 411.9994,234.5469 Q412.1869,234.4375 412.4056,234.4375 Q412.7806,234.4375 413.015,234.7031 Q413.2494,234.9531 413.2494,235.5625 L413.2494,237.0156 Q413.2494,237.625 413.015,237.8906 Q412.7806,238.1563 412.4056,238.1563 Q412.0619,238.1563 411.8588,237.9531 Q411.6556,237.7656 411.5463,237.25 Q411.4994,236.8906 411.3119,236.7031 Q410.9838,236.3281 410.3744,236.1094 Q409.765,235.8906 409.14,235.8906 Q408.3744,235.8906 407.7338,236.2188 Q407.1088,236.5469 406.6088,237.2969 Q406.1244,238.0469 406.1244,239.0781 L406.1244,240.1719 Q406.1244,241.4063 407.015,242.2344 Q407.9056,243.0469 409.4994,243.0469 Q410.4369,243.0469 411.0931,242.7969 Q411.4838,242.6406 411.9056,242.2031 Q412.1713,241.9375 412.3119,241.8594 Q412.4681,241.7813 412.6713,241.7813 Q412.9994,241.7813 413.2494,242.0469 Q413.515,242.2969 413.515,242.6406 Q413.515,242.9844 413.1713,243.3906 Q412.6713,243.9688 411.8744,244.2969 Q410.7963,244.75 409.4994,244.75 Q407.9838,244.75 406.7806,244.125 Q405.7963,243.625 405.1088,242.5625 Q404.4213,241.4844 404.4213,240.2031 L404.4213,239.0469 Q404.4213,237.7188 405.0306,236.5781 Q405.6556,235.4219 406.7494,234.8125 Q407.8431,234.1875 409.0775,234.1875 Q409.8119,234.1875 410.4525,234.3594 Q411.1088,234.5156 411.6556,234.875 Z " fill="#000000"/><text fill="#000000" font-family="sans-serif" font-size="14" lengthAdjust="spacing" textLength="59.8965" x="422.89" y="244.7285">TestDrive</text><line style="stroke:#181818;stroke-width:0.5;" x1="394.89" x2="484.7865" y1="255" y2="255"/><line style="stroke:#181818;stroke-width:0.5;" x1="394.89" x2="484.7865" y1="263" y2="263"/></g><!--class TestEngine--><g class="entity" data-qualified-name="TestEngine" data-source-line="7" id="ent0003"><rect fill="#F1F1F1" height="48" rx="2.5" ry="2.5" style="stroke:#181818;stroke-width:0.5;" width="102.8203" x="388.43" y="7"/><ellipse cx="403.43" cy="23" fill="#ADD1B2" rx="11" ry="11" style="stroke:#181818;stroke-width:1;"/><path d="M406.1956,18.875 Q406.3519,18.6563 406.5394,18.5469 Q406.7269,18.4375 406.9456,18.4375 Q407.3206,18.4375 407.555,18.7031 Q407.7894,18.9531 407.7894,19.5625 L407.7894,21.0156 Q407.7894,21.625 407.555,21.8906 Q407.3206,22.1563 406.9456,22.1563 Q406.6019,22.1563 406.3988,21.9531 Q406.1956,21.7656 406.0863,21.25 Q406.0394,20.8906 405.8519,20.7031 Q405.5238,20.3281 404.9144,20.1094 Q404.305,19.8906 403.68,19.8906 Q402.9144,19.8906 402.2738,20.2188 Q401.6488,20.5469 401.1488,21.2969 Q400.6644,22.0469 400.6644,23.0781 L400.6644,24.1719 Q400.6644,25.4063 401.555,26.2344 Q402.4456,27.0469 404.0394,27.0469 Q404.9769,27.0469 405.6331,26.7969 Q406.0238,26.6406 406.4456,26.2031 Q406.7113,25.9375 406.8519,25.8594 Q407.0081,25.7813 407.2113,25.7813 Q407.5394,25.7813 407.7894,26.0469 Q408.055,26.2969 408.055,26.6406 Q408.055,26.9844 407.7113,27.3906 Q407.2113,27.9688 406.4144,28.2969 Q405.3363,28.75 404.0394,28.75 Q402.5238,28.75 401.3206,28.125 Q400.3363,27.625 399.6488,26.5625 Q398.9613,25.4844 398.9613,24.2031 L398.9613,23.0469 Q398.9613,21.7188 399.5706,20.5781 Q400.1956,19.4219 401.2894,18.8125 Q402.3831,18.1875 403.6175,18.1875 Q404.3519,18.1875 404.9925,18.3594 Q405.6488,18.5156 406.1956,18.875 Z " fill="#000000"/><text fill="#000000" font-family="sans-serif" font-size="14" lengthAdjust="spacing" textLength="70.8203" x="417.43" y="28.7285">TestEngine</text><line style="stroke:#181818;stroke-width:0.5;" x1="389.43" x2="490.2503" y1="39" y2="39"/><line style="stroke:#181818;stroke-width:0.5;" x1="389.43" x2="490.2503" y1="47" y2="47"/></g><!--class TestFrame--><g class="entity" data-qualified-name="TestFrame" data-source-line="8" id="ent0004"><rect fill="#F1F1F1" height="48" rx="2.5" ry="2.5" style="stroke:#181818;stroke-width:0.5;" width="99.6758" x="7" y="439"/><ellipse cx="22" cy="455" fill="#ADD1B2" rx="11" ry="11" style="stroke:#181818;stroke-width:1;"/><path d="M24.7656,450.875 Q24.9219,450.6563 25.1094,450.5469 Q25.2969,450.4375 25.5156,450.4375 Q25.8906,450.4375 26.125,450.7031 Q26.3594,450.9531 26.3594,451.5625 L26.3594,453.0156 Q26.3594,453.625 26.125,453.8906 Q25.8906,454.1563 25.5156,454.1563 Q25.1719,454.1563 24.9688,453.9531 Q24.7656,453.7656 24.6563,453.25 Q24.6094,452.8906 24.4219,452.7031 Q24.0938,452.3281 23.4844,452.1094 Q22.875,451.8906 22.25,451.8906 Q21.4844,451.8906 20.8438,452.2188 Q20.2188,452.5469 19.7188,453.2969 Q19.2344,454.0469 19.2344,455.0781 L19.2344,456.1719 Q19.2344,457.4063 20.125,458.2344 Q21.0156,459.0469 22.6094,459.0469 Q23.5469,459.0469 24.2031,458.7969 Q24.5938,458.6406 25.0156,458.2031 Q25.2813,457.9375 25.4219,457.8594 Q25.5781,457.7813 25.7813,457.7813 Q26.1094,457.7813 26.3594,458.0469 Q26.625,458.2969 26.625,458.6406 Q26.625,458.9844 26.2813,459.3906 Q25.7813,459.9688 24.9844,460.2969 Q23.9063,460.75 22.6094,460.75 Q21.0938,460.75 19.8906,460.125 Q18.9063,459.625 18.2188,458.5625 Q17.5313,457.4844 17.5313,456.2031 L17.5313,455.0469 Q17.5313,453.7188 18.1406,452.5781 Q18.7656,451.4219 19.8594,450.8125 Q20.9531,450.1875 22.1875,450.1875 Q22.9219,450.1875 23.5625,450.3594 Q24.2188,450.5156 24.7656,450.875 Z " fill="#000000"/><text fill="#000000" font-family="sans-serif" font-size="14" lengthAdjust="spacing" textLength="67.6758" x="36" y="460.7285">TestFrame</text><line style="stroke:#181818;stroke-width:0.5;" x1="8" x2="105.6758" y1="471" y2="471"/><line style="stroke:#181818;stroke-width:0.5;" x1="8" x2="105.6758" y1="479" y2="479"/></g><!--class TestSpn--><g class="entity" data-qualified-name="TestSpn" data-source-line="9" id="ent0005"><rect fill="#F1F1F1" height="48" rx="2.5" ry="2.5" style="stroke:#181818;stroke-width:0.5;" width="84.1377" x="141.77" y="439"/><ellipse cx="156.77" cy="455" fill="#ADD1B2" rx="11" ry="11" style="stroke:#181818;stroke-width:1;"/><path d="M159.5356,450.875 Q159.6919,450.6563 159.8794,450.5469 Q160.0669,450.4375 160.2856,450.4375 Q160.6606,450.4375 160.895,450.7031 Q161.1294,450.9531 161.1294,451.5625 L161.1294,453.0156 Q161.1294,453.625 160.895,453.8906 Q160.6606,454.1563 160.2856,454.1563 Q159.9419,454.1563 159.7388,453.9531 Q159.5356,453.7656 159.4263,453.25 Q159.3794,452.8906 159.1919,452.7031 Q158.8638,452.3281 158.2544,452.1094 Q157.645,451.8906 157.02,451.8906 Q156.2544,451.8906 155.6138,452.2188 Q154.9888,452.5469 154.4888,453.2969 Q154.0044,454.0469 154.0044,455.0781 L154.0044,456.1719 Q154.0044,457.4063 154.895,458.2344 Q155.7856,459.0469 157.3794,459.0469 Q158.3169,459.0469 158.9731,458.7969 Q159.3638,458.6406 159.7856,458.2031 Q160.0513,457.9375 160.1919,457.8594 Q160.3481,457.7813 160.5513,457.7813 Q160.8794,457.7813 161.1294,458.0469 Q161.395,458.2969 161.395,458.6406 Q161.395,458.9844 161.0513,459.3906 Q160.5513,459.9688 159.7544,460.2969 Q158.6763,460.75 157.3794,460.75 Q155.8638,460.75 154.6606,460.125 Q153.6763,459.625 152.9888,458.5625 Q152.3013,457.4844 152.3013,456.2031 L152.3013,455.0469 Q152.3013,453.7188 152.9106,452.5781 Q153.5356,451.4219 154.6294,450.8125 Q155.7231,450.1875 156.9575,450.1875 Q157.6919,450.1875 158.3325,450.3594 Q158.9888,450.5156 159.5356,450.875 Z " fill="#000000"/><text fill="#000000" font-family="sans-serif" font-size="14" lengthAdjust="spacing" textLength="52.1377" x="170.77" y="460.7285">TestSpn</text><line style="stroke:#181818;stroke-width:0.5;" x1="142.77" x2="224.9077" y1="471" y2="471"/><line style="stroke:#181818;stroke-width:0.5;" x1="142.77" x2="224.9077" y1="479" y2="479"/></g><!--class TestStyle--><g class="entity" data-qualified-name="TestStyle" data-source-line="10" id="ent0006"><rect fill="#F1F1F1" height="48" rx="2.5" ry="2.5" style="stroke:#181818;stroke-width:0.5;" width="90.3516" x="260.66" y="439"/><ellipse cx="275.66" cy="455" fill="#ADD1B2" rx="11" ry="11" style="stroke:#181818;stroke-width:1;"/><path d="M278.4256,450.875 Q278.5819,450.6563 278.7694,450.5469 Q278.9569,450.4375 279.1756,450.4375 Q279.5506,450.4375 279.785,450.7031 Q280.0194,450.9531 280.0194,451.5625 L280.0194,453.0156 Q280.0194,453.625 279.785,453.8906 Q279.5506,454.1563 279.1756,454.1563 Q278.8319,454.1563 278.6287,453.9531 Q278.4256,453.7656 278.3162,453.25 Q278.2694,452.8906 278.0819,452.7031 Q277.7537,452.3281 277.1444,452.1094 Q276.535,451.8906 275.91,451.8906 Q275.1444,451.8906 274.5037,452.2188 Q273.8787,452.5469 273.3787,453.2969 Q272.8944,454.0469 272.8944,455.0781 L272.8944,456.1719 Q272.8944,457.4063 273.785,458.2344 Q274.6756,459.0469 276.2694,459.0469 Q277.2069,459.0469 277.8631,458.7969 Q278.2537,458.6406 278.6756,458.2031 Q278.9412,457.9375 279.0819,457.8594 Q279.2381,457.7813 279.4412,457.7813 Q279.7694,457.7813 280.0194,458.0469 Q280.285,458.2969 280.285,458.6406 Q280.285,458.9844 279.9412,459.3906 Q279.4412,459.9688 278.6444,460.2969 Q277.5662,460.75 276.2694,460.75 Q274.7537,460.75 273.5506,460.125 Q272.5662,459.625 271.8787,458.5625 Q271.1912,457.4844 271.1912,456.2031 L271.1912,455.0469 Q271.1912,453.7188 271.8006,452.5781 Q272.4256,451.4219 273.5194,450.8125 Q274.6131,450.1875 275.8475,450.1875 Q276.5819,450.1875 277.2225,450.3594 Q277.8787,450.5156 278.4256,450.875 Z " fill="#000000"/><text fill="#000000" font-family="sans-serif" font-size="14" lengthAdjust="spacing" textLength="58.3516" x="289.66" y="460.7285">TestStyle</text><line style="stroke:#181818;stroke-width:0.5;" x1="261.66" x2="350.0116" y1="471" y2="471"/><line style="stroke:#181818;stroke-width:0.5;" x1="261.66" x2="350.0116" y1="479" y2="479"/></g><!--class TestTranny--><g class="entity" data-qualified-name="TestTranny" data-source-line="11" id="ent0007"><rect fill="#F1F1F1" height="48" rx="2.5" ry="2.5" style="stroke:#181818;stroke-width:0.5;" width="102.7998" x="388.44" y="115"/><ellipse cx="403.44" cy="131" fill="#ADD1B2" rx="11" ry="11" style="stroke:#181818;stroke-width:1;"/><path d="M406.2056,126.875 Q406.3619,126.6563 406.5494,126.5469 Q406.7369,126.4375 406.9556,126.4375 Q407.3306,126.4375 407.565,126.7031 Q407.7994,126.9531 407.7994,127.5625 L407.7994,129.0156 Q407.7994,129.625 407.565,129.8906 Q407.3306,130.1563 406.9556,130.1563 Q406.6119,130.1563 406.4088,129.9531 Q406.2056,129.7656 406.0963,129.25 Q406.0494,128.8906 405.8619,128.7031 Q405.5338,128.3281 404.9244,128.1094 Q404.315,127.8906 403.69,127.8906 Q402.9244,127.8906 402.2838,128.2188 Q401.6588,128.5469 401.1588,129.2969 Q400.6744,130.0469 400.6744,131.0781 L400.6744,132.1719 Q400.6744,133.4063 401.565,134.2344 Q402.4556,135.0469 404.0494,135.0469 Q404.9869,135.0469 405.6431,134.7969 Q406.0338,134.6406 406.4556,134.2031 Q406.7213,133.9375 406.8619,133.8594 Q407.0181,133.7813 407.2213,133.7813 Q407.5494,133.7813 407.7994,134.0469 Q408.065,134.2969 408.065,134.6406 Q408.065,134.9844 407.7213,135.3906 Q407.2213,135.9688 406.4244,136.2969 Q405.3463,136.75 404.0494,136.75 Q402.5338,136.75 401.3306,136.125 Q400.3463,135.625 399.6588,134.5625 Q398.9713,133.4844 398.9713,132.2031 L398.9713,131.0469 Q398.9713,129.7188 399.5806,128.5781 Q400.2056,127.4219 401.2994,126.8125 Q402.3931,126.1875 403.6275,126.1875 Q404.3619,126.1875 405.0025,126.3594 Q405.6588,126.5156 406.2056,126.875 Z " fill="#000000"/><text fill="#000000" font-family="sans-serif" font-size="14" lengthAdjust="spacing" textLength="70.7998" x="417.44" y="136.7285">TestTranny</text><line style="stroke:#181818;stroke-width:0.5;" x1="389.44" x2="490.2398" y1="147" y2="147"/><line style="stroke:#181818;stroke-width:0.5;" x1="389.44" x2="490.2398" y1="155" y2="155"/></g><!--class TestWheel1--><g class="entity" data-qualified-name="TestWheel1" data-source-line="12" id="ent0008"><rect fill="#F1F1F1" height="48" rx="2.5" ry="2.5" style="stroke:#181818;stroke-width:0.5;" width="106.6963" x="386.49" y="439"/><ellipse cx="401.49" cy="455" fill="#ADD1B2" rx="11" ry="11" style="stroke:#181818;stroke-width:1;"/><path d="M404.2556,450.875 Q404.4119,450.6563 404.5994,450.5469 Q404.7869,450.4375 405.0056,450.4375 Q405.3806,450.4375 405.615,450.7031 Q405.8494,450.9531 405.8494,451.5625 L405.8494,453.0156 Q405.8494,453.625 405.615,453.8906 Q405.3806,454.1563 405.0056,454.1563 Q404.6619,454.1563 404.4588,453.9531 Q404.2556,453.7656 404.1463,453.25 Q404.0994,452.8906 403.9119,452.7031 Q403.5838,452.3281 402.9744,452.1094 Q402.365,451.8906 401.74,451.8906 Q400.9744,451.8906 400.3338,452.2188 Q399.7088,452.5469 399.2088,453.2969 Q398.7244,454.0469 398.7244,455.0781 L398.7244,456.1719 Q398.7244,457.4063 399.615,458.2344 Q400.5056,459.0469 402.0994,459.0469 Q403.0369,459.0469 403.6931,458.7969 Q404.0838,458.6406 404.5056,458.2031 Q404.7713,457.9375 404.9119,457.8594 Q405.0681,457.7813 405.2713,457.7813 Q405.5994,457.7813 405.8494,458.0469 Q406.115,458.2969 406.115,458.6406 Q406.115,458.9844 405.7713,459.3906 Q405.2713,459.9688 404.4744,460.2969 Q403.3963,460.75 402.0994,460.75 Q400.5838,460.75 399.3806,460.125 Q398.3963,459.625 397.7088,458.5625 Q397.0213,457.4844 397.0213,456.2031 L397.0213,455.0469 Q397.0213,453.7188 397.6306,452.5781 Q398.2556,451.4219 399.3494,450.8125 Q400.4431,450.1875 401.6775,450.1875 Q402.4119,450.1875 403.0525,450.3594 Q403.7088,450.5156 404.2556,450.875 Z " fill="#000000"/><text fill="#000000" font-family="sans-serif" font-size="14" lengthAdjust="spacing" textLength="74.6963" x="415.49" y="460.7285">TestWheel1</text><line style="stroke:#181818;stroke-width:0.5;" x1="387.49" x2="492.1863" y1="471" y2="471"/><line style="stroke:#181818;stroke-width:0.5;" x1="387.49" x2="492.1863" y1="479" y2="479"/></g><!--class TestWheel2--><g class="entity" data-qualified-name="TestWheel2" data-source-line="13" id="ent0009"><rect fill="#F1F1F1" height="48" rx="2.5" ry="2.5" style="stroke:#181818;stroke-width:0.5;" width="106.6963" x="528.49" y="439"/><ellipse cx="543.49" cy="455" fill="#ADD1B2" rx="11" ry="11" style="stroke:#181818;stroke-width:1;"/><path d="M546.2556,450.875 Q546.4119,450.6563 546.5994,450.5469 Q546.7869,450.4375 547.0056,450.4375 Q547.3806,450.4375 547.615,450.7031 Q547.8494,450.9531 547.8494,451.5625 L547.8494,453.0156 Q547.8494,453.625 547.615,453.8906 Q547.3806,454.1563 547.0056,454.1563 Q546.6619,454.1563 546.4588,453.9531 Q546.2556,453.7656 546.1463,453.25 Q546.0994,452.8906 545.9119,452.7031 Q545.5838,452.3281 544.9744,452.1094 Q544.365,451.8906 543.74,451.8906 Q542.9744,451.8906 542.3338,452.2188 Q541.7088,452.5469 541.2088,453.2969 Q540.7244,454.0469 540.7244,455.0781 L540.7244,456.1719 Q540.7244,457.4063 541.615,458.2344 Q542.5056,459.0469 544.0994,459.0469 Q545.0369,459.0469 545.6931,458.7969 Q546.0838,458.6406 546.5056,458.2031 Q546.7713,457.9375 546.9119,457.8594 Q547.0681,457.7813 547.2713,457.7813 Q547.5994,457.7813 547.8494,458.0469 Q548.115,458.2969 548.115,458.6406 Q548.115,458.9844 547.7713,459.3906 Q547.2713,459.9688 546.4744,460.2969 Q545.3963,460.75 544.0994,460.75 Q542.5838,460.75 541.3806,460.125 Q540.3963,459.625 539.7088,458.5625 Q539.0213,457.4844 539.0213,456.2031 L539.0213,455.0469 Q539.0213,453.7188 539.6306,452.5781 Q540.2556,451.4219 541.3494,450.8125 Q542.4431,450.1875 543.6775,450.1875 Q544.4119,450.1875 545.0525,450.3594 Q545.7088,450.5156 546.2556,450.875 Z " fill="#000000"/><text fill="#000000" font-family="sans-serif" font-size="14" lengthAdjust="spacing" textLength="74.6963" x="557.49" y="460.7285">TestWheel2</text><line style="stroke:#181818;stroke-width:0.5;" x1="529.49" x2="634.1863" y1="471" y2="471"/><line style="stroke:#181818;stroke-width:0.5;" x1="529.49" x2="634.1863" y1="479" y2="479"/></g><!--class TestWheel3--><g class="entity" data-qualified-name="TestWheel3" data-source-line="14" id="ent0010"><rect fill="#F1F1F1" height="48" rx="2.5" ry="2.5" style="stroke:#181818;stroke-width:0.5;" width="106.6963" x="670.49" y="439"/><ellipse cx="685.49" cy="455" fill="#ADD1B2" rx="11" ry="11" style="stroke:#181818;stroke-width:1;"/><path d="M688.2556,450.875 Q688.4119,450.6563 688.5994,450.5469 Q688.7869,450.4375 689.0056,450.4375 Q689.3806,450.4375 689.615,450.7031 Q689.8494,450.9531 689.8494,451.5625 L689.8494,453.0156 Q689.8494,453.625 689.615,453.8906 Q689.3806,454.1563 689.0056,454.1563 Q688.6619,454.1563 688.4588,453.9531 Q688.2556,453.7656 688.1463,453.25 Q688.0994,452.8906 687.9119,452.7031 Q687.5838,452.3281 686.9744,452.1094 Q686.365,451.8906 685.74,451.8906 Q684.9744,451.8906 684.3338,452.2188 Q683.7088,452.5469 683.2088,453.2969 Q682.7244,454.0469 682.7244,455.0781 L682.7244,456.1719 Q682.7244,457.4063 683.615,458.2344 Q684.5056,459.0469 686.0994,459.0469 Q687.0369,459.0469 687.6931,458.7969 Q688.0838,458.6406 688.5056,458.2031 Q688.7713,457.9375 688.9119,457.8594 Q689.0681,457.7813 689.2713,457.7813 Q689.5994,457.7813 689.8494,458.0469 Q690.115,458.2969 690.115,458.6406 Q690.115,458.9844 689.7713,459.3906 Q689.2713,459.9688 688.4744,460.2969 Q687.3963,460.75 686.0994,460.75 Q684.5838,460.75 683.3806,460.125 Q682.3963,459.625 681.7088,458.5625 Q681.0213,457.4844 681.0213,456.2031 L681.0213,455.0469 Q681.0213,453.7188 681.6306,452.5781 Q682.2556,451.4219 683.3494,450.8125 Q684.4431,450.1875 685.6775,450.1875 Q686.4119,450.1875 687.0525,450.3594 Q687.7088,450.5156 688.2556,450.875 Z " fill="#000000"/><text fill="#000000" font-family="sans-serif" font-size="14" lengthAdjust="spacing" textLength="74.6963" x="699.49" y="460.7285">TestWheel3</text><line style="stroke:#181818;stroke-width:0.5;" x1="671.49" x2="776.1863" y1="471" y2="471"/><line style="stroke:#181818;stroke-width:0.5;" x1="671.49" x2="776.1863" y1="479" y2="479"/></g><!--class TestWheel4--><g class="entity" data-qualified-name="TestWheel4" data-source-line="15" id="ent0011"><rect fill="#F1F1F1" height="48" rx="2.5" ry="2.5" style="stroke:#181818;stroke-width:0.5;" width="106.6963" x="812.49" y="439"/><ellipse cx="827.49" cy="455" fill="#ADD1B2" rx="11" ry="11" style="stroke:#181818;stroke-width:1;"/><path d="M830.2556,450.875 Q830.4119,450.6563 830.5994,450.5469 Q830.7869,450.4375 831.0056,450.4375 Q831.3806,450.4375 831.615,450.7031 Q831.8494,450.9531 831.8494,451.5625 L831.8494,453.0156 Q831.8494,453.625 831.615,453.8906 Q831.3806,454.1563 831.0056,454.1563 Q830.6619,454.1563 830.4588,453.9531 Q830.2556,453.7656 830.1463,453.25 Q830.0994,452.8906 829.9119,452.7031 Q829.5838,452.3281 828.9744,452.1094 Q828.365,451.8906 827.74,451.8906 Q826.9744,451.8906 826.3338,452.2188 Q825.7088,452.5469 825.2088,453.2969 Q824.7244,454.0469 824.7244,455.0781 L824.7244,456.1719 Q824.7244,457.4063 825.615,458.2344 Q826.5056,459.0469 828.0994,459.0469 Q829.0369,459.0469 829.6931,458.7969 Q830.0838,458.6406 830.5056,458.2031 Q830.7713,457.9375 830.9119,457.8594 Q831.0681,457.7813 831.2713,457.7813 Q831.5994,457.7813 831.8494,458.0469 Q832.115,458.2969 832.115,458.6406 Q832.115,458.9844 831.7713,459.3906 Q831.2713,459.9688 830.4744,460.2969 Q829.3963,460.75 828.0994,460.75 Q826.5838,460.75 825.3806,460.125 Q824.3963,459.625 823.7088,458.5625 Q823.0213,457.4844 823.0213,456.2031 L823.0213,455.0469 Q823.0213,453.7188 823.6306,452.5781 Q824.2556,451.4219 825.3494,450.8125 Q826.4431,450.1875 827.6775,450.1875 Q828.4119,450.1875 829.0525,450.3594 Q829.7088,450.5156 830.2556,450.875 Z " fill="#000000"/><text fill="#000000" font-family="sans-serif" font-size="14" lengthAdjust="spacing" textLength="74.6963" x="841.49" y="460.7285">TestWheel4</text><line style="stroke:#181818;stroke-width:0.5;" x1="813.49" x2="918.1863" y1="471" y2="471"/><line style="stroke:#181818;stroke-width:0.5;" x1="813.49" x2="918.1863" y1="479" y2="479"/></g><!--link TestCar to TestFrame--><g class="link" data-entity-1="ent0001" data-entity-2="ent0004" data-link-type="association" data-source-line="18" id="lnk12"><path codeLine="18" d="M398.66,365.79 C338.09,380.41 221.56,409.44 123.84,439 C118.31,440.67 112.55,442.51 106.83,444.39" fill="none" id="TestCar-TestFrame" style="stroke:#181818;stroke-width:1;"/></g><!--link TestCar to TestSpn--><g class="link" data-entity-1="ent0001" data-entity-2="ent0005" data-link-type="association" data-source-line="19" id="lnk13"><path codeLine="19" d="M398.71,373.03 C351.36,392.64 273.98,424.67 226.14,444.48" fill="none" id="TestCar-TestSpn" style="stroke:#181818;stroke-width:1;"/></g><!--link TestCar to TestStyle--><g class="link" data-entity-1="ent0001" data-entity-2="ent0006" data-link-type="association" data-source-line="20" id="lnk14"><path codeLine="20" d="M410.43,379.26 C388.09,396.94 357.5,421.13 335.18,438.79" fill="none" id="TestCar-TestStyle" style="stroke:#181818;stroke-width:1;"/></g><!--link TestCar to TestWheel1--><g class="link" data-entity-1="ent0001" data-entity-2="ent0008" data-link-type="association" data-source-line="21" id="lnk15"><path codeLine="21" d="M439.84,379.26 C439.84,396.94 439.84,421.13 439.84,438.79" fill="none" id="TestCar-TestWheel1" style="stroke:#181818;stroke-width:1;"/></g><!--link TestCar to TestWheel2--><g class="link" data-entity-1="ent0001" data-entity-2="ent0009" data-link-type="association" data-source-line="22" id="lnk16"><path codeLine="22" d="M471,379.26 C494.68,396.94 527.09,421.13 550.75,438.79" fill="none" id="TestCar-TestWheel2" style="stroke:#181818;stroke-width:1;"/></g><!--link TestCar to TestWheel3--><g class="link" data-entity-1="ent0001" data-entity-2="ent0010" data-link-type="association" data-source-line="23" id="lnk17"><path codeLine="23" d="M481.13,371.41 C531.06,390.05 615.19,421.45 670.12,441.95" fill="none" id="TestCar-TestWheel3" style="stroke:#181818;stroke-width:1;"/></g><!--link TestCar to TestWheel4--><g class="link" data-entity-1="ent0001" data-entity-2="ent0011" data-link-type="association" data-source-line="24" id="lnk18"><path codeLine="24" d="M481.12,364.48 C547.6,378.4 682.34,407.69 794.84,439 C800.46,440.56 806.29,442.29 812.1,444.07" fill="none" id="TestCar-TestWheel4" style="stroke:#181818;stroke-width:1;"/></g><!--link TestDrive to TestCar--><g class="link" data-entity-1="ent0002" data-entity-2="ent0001" data-link-type="association" data-source-line="25" id="lnk19"><path codeLine="25" d="M439.84,271.26 C439.84,288.94 439.84,313.13 439.84,330.79" fill="none" id="TestDrive-TestCar" style="stroke:#181818;stroke-width:1;"/></g><!--link TestEngine to TestTranny--><g class="link" data-entity-1="ent0003" data-entity-2="ent0007" data-link-type="association" data-source-line="26" id="lnk20"><path codeLine="26" d="M439.84,55.26 C439.84,72.94 439.84,97.13 439.84,114.79" fill="none" id="TestEngine-TestTranny" style="stroke:#181818;stroke-width:1;"/></g><!--link TestTranny to TestDrive--><g class="link" data-entity-1="ent0007" data-entity-2="ent0002" data-link-type="association" data-source-line="27" id="lnk21"><path codeLine="27" d="M439.84,163.26 C439.84,180.94 439.84,205.13 439.84,222.79" fill="none" id="TestTranny-TestDrive" style="stroke:#181818;stroke-width:1;"/></g><?plantuml-src RPBBJiCm54Jt_eghRWeBYv94BDXLXIAsj1Bhc_RAjR2To7QHmjUJE2_diPkPCvRYSRRmGOOiUhf2Ni5TAsv9a847NLn9lO8e2g7eIP3Mo3EUlEGSivnB_yZSZpGbMjHmKUZStdihyxkdpqjXJlAFOCVO5ZZdS6WukKQpq8NDcPm_eDq0EkXqZDwi_AK11XVZToEa6NbhuyAn_goH1nVZKsa6MEi9yfKQJmONuxD5Owg1jpOkVD-8rFDGQEsYa4mBoQAGJWlfef1D2rc_zHSfzB8mxYRBTl5ktbf7Oyp2PeHv5Au-2xlhhAN9QfgkfXaRdhNFcnzWVCi-xVOTPG_2sNy0?></g></svg>